<svg xmlns="http://www.w3.org/2000/svg" style="display: none;">
  <!-- Analytics Icon -->
  <symbol id="icon-analytics" viewBox="0 0 24 24">
    <path fill="currentColor" d="M3 13h2v7H3v-7zm4-6h2v13H7V7zm4-4h2v17h-2V3zm4 6h2v11h-2V9zm4-2h2v13h-2V7z"/>
    <path fill="currentColor" opacity="0.3" d="M2 21h20v2H2v-2z"/>
  </symbol>

  <!-- Gaming Icon -->
  <symbol id="icon-gaming" viewBox="0 0 24 24">
    <path fill="currentColor" d="M21.58 16.09l-1.09-7.66A3.996 3.996 0 0 0 16.53 5H7.47C5.48 5 3.79 6.46 3.51 8.43l-1.09 7.66C2.2 17.63 3.39 19 4.94 19c.68 0 1.32-.27 1.8-.75L9 16h6l2.25 2.25c.48.48 1.13.75 1.8.75 1.56 0 2.75-1.37 2.53-2.91zM11 11H9v2H8v-2H6v-1h2V8h1v2h2v1zm4-1c-.55 0-1-.45-1-1s.45-1 1-1 1 .45 1 1-.45 1-1 1zm2 3c-.55 0-1-.45-1-1s.45-1 1-1 1 .45 1 1-.45 1-1 1z"/>
  </symbol>

  <!-- AI/Robot Icon -->
  <symbol id="icon-ai" viewBox="0 0 24 24">
    <path fill="currentColor" d="M12 2C6.48 2 2 6.48 2 12s4.48 10 10 10 10-4.48 10-10S17.52 2 12 2zm0 18c-4.41 0-8-3.59-8-8s3.59-8 8-8 8 3.59 8 8-3.59 8-8 8z"/>
    <circle fill="currentColor" cx="8.5" cy="10.5" r="1.5"/>
    <circle fill="currentColor" cx="15.5" cy="10.5" r="1.5"/>
    <path fill="currentColor" d="M12 17.5c2.33 0 4.31-1.46 5.11-3.5H6.89c.8 2.04 2.78 3.5 5.11 3.5z"/>
  </symbol>

  <!-- Lightning Icon -->
  <symbol id="icon-lightning" viewBox="0 0 24 24">
    <path fill="currentColor" d="M7 2v11h3v9l7-12h-4l4-8z"/>
    <path fill="currentColor" opacity="0.5" d="M10 13v9l7-12h-4l4-8H7v11h3z"/>
  </symbol>

  <!-- Trophy Icon -->
  <symbol id="icon-trophy" viewBox="0 0 24 24">
    <path fill="currentColor" d="M19 5h-2V3H7v2H5c-1.1 0-2 .9-2 2v1c0 2.55 1.92 4.63 4.39 4.94.63 1.5 1.98 2.63 3.61 2.96V19H7v2h10v-2h-4v-3.1c1.63-.33 2.98-1.46 3.61-2.96C19.08 12.63 21 10.55 21 8V7c0-1.1-.9-2-2-2zM5 8V7h2v3.82C5.84 10.4 5 9.3 5 8zm14 0c0 1.3-.84 2.4-2 2.82V7h2v1z"/>
  </symbol>

  <!-- Mobile/Phone Icon -->
  <symbol id="icon-mobile" viewBox="0 0 24 24">
    <path fill="currentColor" d="M17 1.01L7 1c-1.1 0-2 .9-2 2v18c0 1.1.9 2 2 2h10c1.1 0 2-.9 2-2V3c0-1.1-.9-1.99-2-1.99zM17 19H7V5h10v14zm-5 2c-.55 0-1-.45-1-1s.45-1 1-1 1 .45 1 1-.45 1-1 1z"/>
    <path fill="currentColor" opacity="0.3" d="M7 5h10v14H7z"/>
  </symbol>

  <!-- Fire/Flame Icon -->
  <symbol id="icon-flame" viewBox="0 0 24 24">
    <path fill="currentColor" d="M13.5.67s.74 2.65.74 4.8c0 2.06-1.35 3.73-3.41 3.73-2.07 0-3.63-1.67-3.63-3.73l.03-.36C5.21 7.51 4 10.62 4 14c0 4.42 3.58 8 8 8s8-3.58 8-8C20 8.61 17.41 3.8 13.5.67zM11.71 19c-1.78 0-3.22-1.4-3.22-3.14 0-1.62 1.05-2.76 2.81-3.12 1.77-.36 3.6-1.21 4.62-2.58.39 1.29.59 2.65.59 4.04 0 2.65-2.15 4.8-4.8 4.8z"/>
  </symbol>

  <!-- Baseball Icon -->
  <symbol id="icon-baseball" viewBox="0 0 24 24">
    <circle fill="currentColor" cx="12" cy="12" r="10" opacity="0.3"/>
    <path fill="currentColor" d="M12 2C6.48 2 2 6.48 2 12s4.48 10 10 10 10-4.48 10-10S17.52 2 12 2zm0 18c-4.42 0-8-3.58-8-8 0-1.85.63-3.55 1.69-4.9l1.43 1.43C6.45 9.37 6 10.62 6 12c0 3.31 2.69 6 6 6 1.66 0 3.14-.69 4.22-1.78l1.43 1.43C16.55 19.37 14.85 20 12 20zm5.31-5.9l-1.43-1.43C16.55 11.63 17 10.38 17 9c0-3.31-2.69-6-6-6-1.66 0-3.14.69-4.22 1.78L5.35 3.35C6.45 2.63 8.15 2 10 2c4.42 0 8 3.58 8 8 0 1.85-.63 3.55-1.69 4.9z"/>
  </symbol>

  <!-- Football Icon -->
  <symbol id="icon-football" viewBox="0 0 24 24">
    <path fill="currentColor" d="M3.02 15.62c-.08 2.42.32 4.34.67 4.69s2.28.76 4.69.67l-5.36-5.36zM13.08 3.28c-2.33.42-4.79 1.34-6.62 3.18s-2.76 4.29-3.18 6.62l7.63 7.63c2.34-.41 4.79-1.34 6.62-3.18s2.76-4.29 3.18-6.62l-7.63-7.63zM9.9 15.5l-1.4-1.4 5.6-5.6 1.4 1.4-5.6 5.6zm11.48-7.12c.08-2.42-.32-4.34-.67-4.69s-2.28-.76-4.69-.67l5.36 5.36z"/>
  </symbol>

  <!-- Basketball Icon -->
  <symbol id="icon-basketball" viewBox="0 0 24 24">
    <path fill="currentColor" d="M17.09 11h4.86a9.951 9.951 0 0 0-1.54-4.4 10.026 10.026 0 0 0-3.32-3.05V11zM6.91 11V3.55A10.027 10.027 0 0 0 3.59 6.6 9.951 9.951 0 0 0 2.05 11h4.86zM13 3.06V11h8.95A10.015 10.015 0 0 0 13 3.06zM11 3.06A10.015 10.015 0 0 0 2.05 11H11V3.06zM13 13v7.94A10.015 10.015 0 0 0 21.95 13H13zM11 13H2.05A10.015 10.015 0 0 0 11 20.94V13zM17.09 13v7.45c1.32-.63 2.49-1.56 3.32-3.05.67-1.15 1.14-2.46 1.54-4.4h-4.86zM6.91 13H2.05c.4 1.94.87 3.25 1.54 4.4.83 1.49 2 2.42 3.32 3.05V13z"/>
  </symbol>
</svg>
